<svg width="296" height="260" viewBox="0 0 296 260" fill="none" xmlns="http://www.w3.org/2000/svg">
<path id="Exclude" fill-rule="evenodd" clip-rule="evenodd" d="M0 260C42.8175 223.373 161.881 120.095 295.595 0H147V132H0V260ZM204 21C204 27.0751 199.075 32 193 32C186.925 32 182 27.0751 182 21C182 14.9249 186.925 10 193 10C199.075 10 204 14.9249 204 21ZM57 153C57 159.075 52.0751 164 46 164C39.9249 164 35 159.075 35 153C35 146.925 39.9249 142 46 142C52.0751 142 57 146.925 57 153Z" fill="black"/>
</svg>
